<svg xmlns="http://www.w3.org/2000/svg" viewBox="0 0 120 120" fill="none">
  <rect width="120" height="120" rx="24" fill="url(#grad)"/>
  <defs>
    <linearGradient id="grad" x1="0" y1="0" x2="120" y2="120">
      <stop offset="0%" stop-color="#6366f1"/>
      <stop offset="100%" stop-color="#a855f7"/>
    </linearGradient>
  </defs>
  <!-- Hanger -->
  <path d="M60 22 C60 18 64 14 68 14 C72 14 76 18 76 22" stroke="#fff" stroke-width="3" fill="none" stroke-linecap="round"/>
  <!-- Shirt/Dress shape -->
  <path d="M36 42 L48 34 L60 28 L72 34 L84 42 L78 50 L72 46 L72 90 C72 94 68 98 60 98 C52 98 48 94 48 90 L48 46 L42 50 Z" fill="rgba(255,255,255,0.95)" stroke="rgba(255,255,255,0.3)" stroke-width="1"/>
  <!-- Collar -->
  <path d="M52 34 L60 42 L68 34" stroke="#6366f1" stroke-width="2.5" fill="none" stroke-linecap="round" stroke-linejoin="round"/>
  <!-- Buttons -->
  <circle cx="60" cy="54" r="2" fill="#6366f1"/>
  <circle cx="60" cy="66" r="2" fill="#6366f1"/>
  <circle cx="60" cy="78" r="2" fill="#6366f1"/>
  <!-- KD text -->
  <text x="60" y="108" text-anchor="middle" font-family="Arial,sans-serif" font-size="11" font-weight="700" fill="rgba(255,255,255,0.7)">KD</text>
</svg>
